<?xml version="1.0" encoding="UTF-8"?>
<svg id="Layer_1" data-name="Layer 1" xmlns="http://www.w3.org/2000/svg" viewBox="0 0 1080 1080">
  <defs>
    <style>
      .cls-1 {
        fill: #fff;
        stroke-width: 0px;
      }
    </style>
  </defs>
  <path class="cls-1" d="M178.62,817.13h-78.3v17.77h73.76v24.05h-73.76v33.41h-30.33v-99.48h108.63v24.25ZM190.91,792.88h25.32v20.64h-25.32v-20.64ZM190.91,822.01h25.32v70.35h-25.32v-70.35ZM259.26,863.36h63.54v-15.03c0-8.86-2.78-15.62-8.35-20.28-5.57-4.65-13.65-6.98-24.25-6.98h-23.65c-10.51,0-18.56,2.34-24.15,7.02s-8.39,11.42-8.39,20.24v19.11c0,8.37,2.8,14.78,8.39,19.21s13.68,6.65,24.28,6.65h23.52c11.58,0,19.89-1.81,24.92-5.44s7.55-9.56,7.55-17.8v-1.07h-23.85c-.53,2.94-1.63,4.94-3.27,6.01s-5.21,1.6-10.69,1.6h-10.62c-5.39,0-9.25-.88-11.59-2.64s-3.51-4.67-3.51-8.72c0-.13.02-.42.07-.87.04-.44.07-.78.07-1h-.02ZM259.26,847.6c0-3.3,1.08-5.64,3.24-7.05,2.16-1.4,5.87-2.1,11.12-2.1h10.42c5.25,0,8.94.69,11.06,2.07,2.11,1.38,3.17,3.74,3.17,7.08v.27h-39.02v-.27h0ZM340.84,792.88h25.32v99.48h-25.32v-99.48ZM452.34,792.88v42.16c-1.38-4.77-4.39-8.13-9.02-10.09-4.63-1.96-12.23-2.94-22.78-2.94-13.32,0-22.75,1.87-28.29,5.61s-8.32,10.13-8.32,19.17v23.25c0,8.55,2.77,14.61,8.32,18.17,5.55,3.56,15.13,5.34,28.76,5.34,10.96,0,18.78-1.06,23.48-3.17s7.32-5.65,7.85-10.59v12.56h25.26v-99.48h-25.26ZM452.75,862.36c0,4.28-1.21,7.32-3.64,9.12-2.43,1.8-6.56,2.71-12.39,2.71h-11.49c-5.92,0-10.08-.91-12.46-2.74s-3.57-4.9-3.57-9.22v-8.75c0-4.28,1.24-7.35,3.71-9.22s6.58-2.81,12.33-2.81h11.49c6.06,0,10.24.9,12.56,2.71,2.31,1.8,3.47,5.07,3.47,9.79v8.42h0ZM562.72,892.36h-30.34v-75.1h-41.62v-24.38h113.58v24.38h-41.62v75.1ZM625.12,863.36h63.54v-15.03c0-8.86-2.78-15.62-8.35-20.28-5.57-4.65-13.65-6.98-24.26-6.98h-23.65c-10.51,0-18.56,2.34-24.15,7.02s-8.39,11.42-8.39,20.24v19.11c0,8.37,2.8,14.78,8.39,19.21s13.68,6.65,24.29,6.65h23.51c11.58,0,19.88-1.81,24.92-5.44s7.55-9.56,7.55-17.8v-1.07h-23.85c-.54,2.94-1.62,4.94-3.27,6.01s-5.21,1.6-10.69,1.6h-10.62c-5.39,0-9.25-.88-11.6-2.64-2.34-1.76-3.51-4.67-3.51-8.72,0-.13.02-.42.07-.87.04-.44.07-.78.07-1h0ZM625.12,847.6c0-3.3,1.08-5.64,3.24-7.05,2.16-1.4,5.87-2.1,11.12-2.1h10.42c5.26,0,8.94.69,11.06,2.07,2.11,1.38,3.17,3.74,3.17,7.08v.27h-39.02v-.27h.01ZM736.89,893.29c-11.94,0-20.52-2.01-25.76-6.05-5.24-4.03-7.85-10.63-7.85-19.81v-19.11c0-10.16,2.48-17.24,7.45-21.25,4.97-4.01,13.69-6.01,26.16-6.01h23.98c11.67,0,20.22,1.94,25.66,5.81,5.43,3.88,8.15,9.96,8.15,18.24,0,.89-.04,1.82-.1,2.77-.06.96-.19,1.95-.36,2.97h-23.92v-.4c0-3.65-1.08-6.29-3.24-7.92s-5.74-2.44-10.72-2.44h-12.43c-5.79,0-9.78.91-11.96,2.74s-3.27,5.19-3.27,10.09v9.02c0,4.45,1.17,7.63,3.51,9.52s6.25,2.84,11.72,2.84h11.09c6.32,0,10.48-.8,12.46-2.41,1.98-1.6,2.97-4.63,2.97-9.09h25.19c.04.54.08,1.1.1,1.7.02.6.03,1.48.03,2.64,0,9.44-2.62,16.16-7.85,20.14-5.23,3.99-14.11,5.98-26.62,5.98h-24.38v.03ZM837.84,892.36h-25.32v-99.48h25.32v40.35c2.89-4.32,6.6-7.38,11.12-9.19,4.52-1.8,11.35-2.7,20.48-2.7,11.45,0,20.03,2.14,25.76,6.41,5.72,4.28,8.58,10.67,8.58,19.18v45.43h-25.25v-35.41c0-6.24-1.4-10.33-4.21-12.29-2.81-1.96-8.17-2.94-16.1-2.94-7.17,0-12.36,1.26-15.57,3.77-3.21,2.52-4.81,6.6-4.81,12.26v34.61ZM954.9,888.96h-9.49l-30.74-66.94h27.86l19.58,45.7,20.24-45.7h27.66l-35.14,75.83c-1.83,3.92-3.67,7.1-5.51,9.55-1.85,2.45-3.89,4.32-6.11,5.61-1.91,1.11-4.2,1.91-6.85,2.4-2.65.49-5.85.74-9.59.74-1.96,0-3.9-.05-5.82-.13-1.91-.09-3.81-.22-5.68-.4v-16.64c1.02.09,1.98.17,2.87.23.89.07,1.76.1,2.61.1,4.05,0,7.2-.82,9.45-2.47,2.25-1.65,3.8-4.28,4.64-7.88h.02ZM542.95,481.77l16.4-102.82H253.44l-47.05,297.03h136.37l30.51-194.21h169.68ZM856.75,266.04s7.06-40.25,16.86-102.19H287.48l-26.86,169.68h136.22l10.48-66.23h213.27l-66.92,408.91h135.13l67.86-410.18h100.09Z"/>
</svg>